HIERARCHY
ROOT Hips
{
	OFFSET	0.00	0.00	0.00
	CHANNELS 6 Xposition Yposition Zposition Zrotation Xrotation Yrotation
	JOINT LeftUpLeg
	{
		OFFSET	 0.126116	-0.014019	-0.065224
		CHANNELS 3 Zrotation Xrotation Yrotation
		JOINT LeftLeg
		{
			OFFSET	 0.000000	 0.000000	 0.569914
			CHANNELS 3 Zrotation Xrotation Yrotation
			JOINT LeftFoot
			{
				OFFSET	 0.000000	 0.000000	 0.544423
				CHANNELS 3 Zrotation Xrotation Yrotation
				JOINT LeftToeBase
				{
					OFFSET	 0.000000	 0.000000	 0.207117
					CHANNELS 3 Zrotation Xrotation Yrotation
					End Site
					{
						OFFSET	 0.000000	 0.000000	 0.207117
					}
				}
			}
		}
	}
	JOINT RightUpLeg
	{
		OFFSET	-0.124023	-0.008373	-0.065224
		CHANNELS 3 Zrotation Xrotation Yrotation
		JOINT RightLeg
		{
			OFFSET	 0.000000	 0.000000	 0.570047
			CHANNELS 3 Zrotation Xrotation Yrotation
			JOINT RightFoot
			{
				OFFSET	 0.000000	 0.000000	 0.544354
				CHANNELS 3 Zrotation Xrotation Yrotation
				JOINT RightToeBase
				{
					OFFSET	 0.000000	 0.000000	 0.207540
					CHANNELS 3 Zrotation Xrotation Yrotation
					End Site
					{
						OFFSET	 0.000000	 0.000000	 0.207540
					}
				}
			}
		}
	}
	JOINT Spine
	{
		OFFSET	 0.000184	-0.007763	 0.117403
		CHANNELS 3 Zrotation Xrotation Yrotation
		JOINT Spine1
		{
			OFFSET	 0.000000	 0.000000	 0.137269
			CHANNELS 3 Zrotation Xrotation Yrotation
			JOINT Spine2
			{
				OFFSET	 0.000000	 0.000000	 0.156879
				CHANNELS 3 Zrotation Xrotation Yrotation
				JOINT LeftShoulder
				{
					OFFSET	 0.080501	-0.002496	 0.160144
					CHANNELS 3 Zrotation Xrotation Yrotation
					JOINT LeftArm
					{
						OFFSET	 0.000000	 0.000000	 0.164363
						CHANNELS 3 Zrotation Xrotation Yrotation
						JOINT LeftForeArm
						{
							OFFSET	 0.000000	 0.000000	 0.364576
							CHANNELS 3 Zrotation Xrotation Yrotation
							JOINT LeftHand
							{
								OFFSET	 0.000000	 0.000000	 0.360812
								CHANNELS 3 Zrotation Xrotation Yrotation
								JOINT LeftHandIndex1
								{
									OFFSET	 0.000000	 0.000000	 0.086006
									CHANNELS 3 Zrotation Xrotation Yrotation
									JOINT LeftHandIndex2
									{
										OFFSET	 0.000000	 0.000000	 0.047236
										CHANNELS 3 Zrotation Xrotation Yrotation
										JOINT LeftHandIndex3
										{
											OFFSET	-0.004284	-0.000551	 0.038166
											CHANNELS 3 Zrotation Xrotation Yrotation
											End Site
											{
												OFFSET	-0.004284	-0.000551	 0.038166
											}
										}
									}
								}
							}
						}
					}
				}
				JOINT Neck
				{
					OFFSET	 0.000000	 0.000000	 0.176489
					CHANNELS 3 Zrotation Xrotation Yrotation
					JOINT Head
					{
						OFFSET	 0.000000	-0.001747	 0.077940
						CHANNELS 3 Zrotation Xrotation Yrotation
						End Site
						{
							OFFSET	 0.000000	-0.001747	 0.077940
						}
					}
				}
				JOINT RightShoulder
				{
					OFFSET	-0.080363	 0.000306	 0.159706
					CHANNELS 3 Zrotation Xrotation Yrotation
					JOINT RightArm
					{
						OFFSET	 0.000000	 0.000000	 0.164196
						CHANNELS 3 Zrotation Xrotation Yrotation
						JOINT RightForeArm
						{
							OFFSET	 0.000000	 0.000000	 0.365611
							CHANNELS 3 Zrotation Xrotation Yrotation
							JOINT RightHand
							{
								OFFSET	 0.000000	 0.000000	 0.360648
								CHANNELS 3 Zrotation Xrotation Yrotation
								JOINT RightHandIndex1
								{
									OFFSET	 0.000000	 0.000000	 0.069977
									CHANNELS 3 Zrotation Xrotation Yrotation
									JOINT RightHandIndex2
									{
										OFFSET	 0.000000	 0.000000	 0.052305
										CHANNELS 3 Zrotation Xrotation Yrotation
										JOINT RightHandIndex3
										{
											OFFSET	 0.009002	-0.000782	 0.042196
											CHANNELS 3 Zrotation Xrotation Yrotation
											End Site
											{
												OFFSET	 0.009002	-0.000782	 0.042196
											}
										}
									}
								}
							}
						}
					}
				}
			}
		}
	}
}
MOTION
Frames:    6
Frame Time: 0.03333334
-0.034721	 0.297122	 0.981948	-0.098526	 33.514130	-5.624718	 75.531410	-83.760270	-112.781700	 9.028746	-77.019980	 9.208135	 57.712750	 80.635160	-65.670400	-2.385832	 28.452790	-0.000001	 104.144000	-84.289860	-76.813480	-21.894300	-78.389430	-16.423970	-12.078160	 79.739460	 31.627990	 2.384659	 28.388700	-0.000001	-0.602212	 15.190050	 2.285476	-3.283868	 22.045920	 5.275115	 3.540793	-0.437360	 0.378389	-98.877590	 68.371780	 157.412200	 5.240257	-6.774043	-49.664080	-25.873100	 3.477984	-10.285600	-24.449210	-20.302650	-18.501140	-2.027600	 6.559038	 9.033609	-5.188889	 0.308190	 3.541030	-5.234859	 0.342567	 0.430617	-0.120211	 14.488760	-4.894883	 5.389492	-22.942960	 1.105159	 97.274630	 64.443980	-159.774300	-5.407799	 5.291817	 55.326100	 8.201114	 11.331250	 35.481870	 8.200218	-19.019200	 14.673830	 1.803333	 3.979147	-15.098590	 4.898592	 3.004813	-9.310344	 5.224449	 0.395017	 2.014677
-0.033276	 0.295335	 0.999575	-0.235629	 31.872410	-4.959676	 51.302240	-82.116540	-137.176100	 7.345317	-74.669420	 7.488859	 52.630500	 80.583700	-60.309980	-2.385832	 28.452790	-0.000001	 63.505440	-85.243580	-116.658300	-19.816270	-76.091830	-14.257680	-11.907170	 79.364620	 31.179560	 2.384659	 28.388700	-0.000001	 1.623521	 15.167180	 2.148501	-3.049752	 23.060060	 4.865107	 3.623453	-2.469612	 0.077639	-97.986940	 69.457430	 158.570500	 5.651917	-2.873896	-51.446740	-25.170010	 3.425620	-10.220940	-25.498390	-20.985300	-19.857710	-2.027600	 6.559038	 9.033609	-5.188889	 0.308190	 3.541030	-5.234859	 0.342567	 0.430617	-0.766210	 7.706131	-3.347191	 4.965408	-16.588870	-0.200444	 96.864960	 64.179150	-161.043100	-6.920459	 5.512159	 55.092370	 8.106311	 11.894120	 37.140300	 7.900610	-18.830880	 16.213210	 1.803333	 3.979147	-15.098590	 4.898592	 3.004813	-9.310344	 5.224449	 0.395017	 2.014677
-0.031101	 0.294121	 1.019122	-0.391268	 29.894830	-4.169883	 35.747950	-79.226210	-152.987200	 6.352158	-72.045220	 6.441905	 47.448650	 80.436870	-54.884610	-2.385833	 28.452760	 0.000004	 24.223940	-83.179990	-155.070300	-18.460520	-73.394830	-12.777600	-11.482270	 79.039220	 30.531960	 2.384659	 28.388700	-0.000001	 3.738072	 15.315450	 1.998924	-2.889189	 23.916490	 4.463717	 3.663568	-4.746159	-0.171721	-96.317690	 72.067860	 159.744500	 6.949254	 2.618918	-53.775420	-24.257230	 3.345142	-10.117820	-26.782830	-21.828560	-21.697950	-2.027600	 6.559038	 9.033609	-5.188889	 0.308190	 3.541030	-5.234859	 0.342567	 0.430617	-1.172712	-0.364743	-2.289400	 4.705636	-9.049360	-1.307465	 96.068360	 65.380750	-162.084000	-8.769802	 7.993360	 54.904620	 7.184678	 12.033250	 38.991940	 7.680701	-19.028300	 17.277420	 1.803333	 3.979147	-15.098590	 4.898592	 3.004813	-9.310344	 5.224449	 0.395017	 2.014677
-0.027373	 0.291318	 1.045093	-0.301137	 27.261820	-3.202145	 25.116900	-74.698590	-163.826000	 6.005413	-68.486250	 5.977896	 41.365790	 79.952260	-48.610770	-2.385833	 28.452750	 0.000004	 4.718060	-78.171700	-173.379600	-15.628170	-69.740700	-9.846528	-11.038950	 78.777110	 29.375040	 2.384659	 28.388700	-0.000001	 6.070703	 15.469090	 1.682970	-2.708457	 24.609550	 3.815625	 3.702298	-7.468840	-0.246763	-93.519360	 76.270420	 160.867300	 9.570861	 9.541597	-57.326220	-22.960060	 3.212227	-9.940607	-27.920880	-22.874750	-23.763760	-2.027600	 6.559038	 9.033609	-5.188889	 0.308190	 3.541030	-5.234859	 0.342567	 0.430617	-1.565626	-10.622300	-2.472860	 4.714809	 0.550871	-1.692250	 94.654720	 68.139820	-163.477200	-11.502720	 12.382990	 55.265650	 5.703360	 12.159150	 42.015960	 7.677828	-20.056350	 18.058880	 1.803333	 3.979147	-15.098590	 4.898592	 3.004813	-9.310344	 5.224449	 0.395017	 2.014677
-0.022216	 0.284688	 1.071697	 0.518650	 25.203540	-2.452060	 20.296230	-70.130000	-168.517800	 5.788715	-64.603480	 5.551501	 37.445270	 79.075030	-44.278410	-2.385833	 28.452750	 0.000004	-2.368861	-72.897950	-179.011700	-12.213610	-65.873210	-6.455417	-8.436310	 78.436970	 25.700440	 2.384659	 28.388700	-0.000001	 8.207781	 14.725550	 0.775456	-2.822836	 24.851660	 3.079839	 3.766757	-9.976188	-0.430171	-93.789540	 75.502300	 162.985000	 12.268260	 12.142970	-58.091350	-21.549440	 3.054885	-9.722688	-27.158950	-23.168820	-25.623230	-2.027600	 6.559038	 9.033609	-5.188889	 0.308190	 3.541030	-5.234859	 0.342567	 0.430617	-1.667579	-14.417070	-1.220449	 4.725037	 3.995983	-2.583422	 93.818120	 69.525700	-164.698100	-14.267300	 15.946160	 53.786530	 4.051775	 12.305940	 45.905330	 7.236480	-20.494480	 18.313920	 1.803333	 3.979147	-15.098590	 4.898592	 3.004813	-9.310344	 5.224449	 0.395017	 2.014677
-0.018785	 0.274701	 1.101354	 1.276465	 23.382780	-1.959235	 16.706200	-65.052010	-171.904100	 5.246455	-59.865210	 4.901639	 31.269720	 77.950140	-37.709190	-2.385833	 28.452750	 0.000004	-6.454265	-67.258980	 178.384100	-9.358266	-61.141590	-3.690464	-6.872048	 77.423190	 22.822250	 2.384659	 28.388700	-0.000001	 10.189590	 13.065560	 0.336617	-2.590719	 24.683370	 2.334335	 3.708216	-12.273450	-0.462869	-94.411640	 73.760490	 164.908200	 15.178990	 13.356590	-57.987580	-19.958330	 2.862703	-9.444317	-25.327960	-23.016700	-25.937940	-2.027600	 6.559038	 9.033609	-5.188889	 0.308190	 3.541030	-5.234859	 0.342567	 0.430617	-1.805450	-15.278890	-0.978526	 4.821253	 5.032302	-2.517591	 93.985200	 67.365800	-166.491800	-16.384350	 16.617090	 49.697560	 2.115530	 12.590290	 51.511570	 6.081956	-19.966000	 18.412610	 1.803333	 3.979147	-15.098590	 4.898592	 3.004813	-9.310344	 5.224449	 0.395017	 2.014677
